<svg width="80" height="80" viewBox="0 0 80 80" fill="none" xmlns="http://www.w3.org/2000/svg">
<path d="M80 0H0V80H80V0Z" fill="#1E1E1E"/>
<path d="M17.8975 34.8578H22.5163V48.3535H26.4135V34.8939H30.9962V31.6462H17.8975V34.8578Z" fill="white"/>
<path d="M31.8262 40.0183C31.8262 46.2249 35.4707 49.4725 40.8113 48.6426C44.4919 48.1013 46.8735 45.1062 46.8735 40.0183C46.8735 33.8117 43.229 30.5641 37.9245 31.394C34.2078 31.9714 31.8262 34.9303 31.8262 40.0183ZM36.2285 40.0183C36.2285 39.6213 36.2646 39.2605 36.2646 38.8636C36.445 35.9046 37.275 34.7138 38.6823 34.3891C40.703 33.8839 42.1825 35.2912 42.399 38.8275C42.4351 39.6214 42.4351 40.4152 42.399 41.2091C42.2186 44.4567 41.1 45.7558 39.3318 45.7558C37.5637 45.7558 36.4811 44.4567 36.2646 41.173C36.2646 40.7761 36.2285 40.3791 36.2285 40.0183Z" fill="white"/>
<path d="M61.8496 48.3535H65.8189L66.9015 44.7811H71.8451L72.9276 48.3535H77.0774L71.7729 31.6462H67.1902L61.8496 48.3535ZM67.7314 41.8222L68.8501 37.5641C69.1027 36.6259 69.247 35.9764 69.3192 35.1826C69.3552 34.8578 69.3913 34.5691 69.4274 34.2443C69.4996 35.363 69.6439 36.3734 69.9687 37.5641L71.1234 41.8222H67.7314Z" fill="white"/>
<path d="M47.9561 44.3479C48.786 46.9821 51.2398 48.7142 54.5957 48.7142C58.0237 48.7142 60.4414 46.8739 61.0188 44.384C61.6322 41.7498 60.5136 39.8734 57.4103 38.6465C57.2659 38.5744 57.0855 38.5022 56.9051 38.4661L56.2195 38.2135L55.7865 38.0692L54.8482 37.7083L54.2348 37.4918L53.9822 37.3836C53.7657 37.2753 53.5492 37.1671 53.3327 37.0227C52.5027 36.4815 52.4667 35.3628 53.3327 34.7133C53.91 34.2442 54.8482 34.0999 55.6782 34.4246C56.436 34.7133 57.0133 35.2907 57.3742 36.1567C57.4103 36.301 57.4824 36.4815 57.5185 36.6619L60.8022 35.3989C60.1888 32.6926 57.6268 30.9605 53.9822 31.3213C51.4202 31.61 49.5438 33.2338 49.0025 35.3267C48.353 38.0331 49.4355 39.7652 52.7192 41.0642C52.8636 41.1003 53.0079 41.1725 53.1523 41.2086L53.6575 41.389L54.2709 41.5694L55.2091 41.8581C56.039 42.1107 56.2916 42.255 56.6164 42.5076C57.4464 43.1932 57.302 44.5644 56.2556 45.1057C55.6782 45.3944 54.7761 45.5027 53.9822 45.3222C53.1162 45.1057 52.3584 44.4923 51.8532 43.5541C51.745 43.3736 51.6728 43.1571 51.6367 42.9406L47.9561 44.3479Z" fill="white"/>
<path d="M3.60742 44.3482C4.43737 46.9824 6.89114 48.7144 10.247 48.7144C13.6751 48.7144 16.0928 46.8741 16.6701 44.3843C17.2836 41.7501 16.1649 39.8737 13.0616 38.6468C12.8812 38.5746 12.7369 38.5024 12.5565 38.4664L11.8708 38.2138L11.4378 38.0694L10.4996 37.7086L9.88618 37.4921L9.63358 37.3838C9.41707 37.2756 9.20057 37.1673 8.98406 37.023C8.15411 36.4817 8.11802 35.3631 8.98406 34.7135C9.56141 34.2444 10.4996 34.1001 11.3296 34.4249C12.0874 34.7135 12.6647 35.2909 13.0256 36.1569C13.0616 36.3013 13.1338 36.4817 13.1699 36.6621L16.4536 35.3992C15.8402 32.6928 13.2781 30.9607 9.63358 31.3216C7.07156 31.6103 5.19515 33.2341 4.65388 35.327C4.00435 38.0333 5.0869 39.7654 8.37062 41.0645C8.51495 41.1006 8.65929 41.1727 8.80363 41.2088L9.30882 41.3892L9.92226 41.5697L10.8605 41.8583C11.6904 42.1109 11.943 42.2553 12.2678 42.5079C13.0977 43.1935 12.9534 44.5647 11.9069 45.106C11.3296 45.3946 10.4274 45.5029 9.63358 45.3225C8.76755 45.106 8.00977 44.4925 7.50458 43.5543C7.39633 43.3739 7.32416 43.1574 7.28807 42.9409L3.60742 44.3482Z" fill="white"/>
<path d="M17.7547 58.421C17.4661 59.251 16.6361 59.9005 15.6257 59.9005C14.2545 59.9005 13.2441 58.818 13.2441 57.555C13.2441 56.3281 14.2184 55.2095 15.5897 55.2095C16.8165 55.2095 17.5382 56.0755 17.7547 56.689H16.997C16.8526 56.4003 16.3835 55.859 15.5897 55.8229C14.6154 55.8229 13.9658 56.6168 13.9658 57.5189C13.9658 58.4571 14.6514 59.251 15.5897 59.251C16.4557 59.251 16.8887 58.6014 16.997 58.421H17.7547Z" fill="white"/>
<path d="M25.2588 55.2456V58.0602C25.2588 58.3488 25.2588 58.6014 25.4392 58.854C25.5836 59.0705 25.8362 59.2149 26.1248 59.2149C26.4496 59.2149 26.7022 59.0705 26.8105 58.854C26.9909 58.6014 26.9909 58.3488 26.9909 58.0602V55.2456H27.7126V58.0602C27.7126 58.6736 27.6043 59.1066 27.2074 59.4314C26.9548 59.684 26.5939 59.8283 26.1248 59.8283C25.8001 59.8283 25.331 59.7201 25.0423 59.4314C24.6093 59.0345 24.5371 58.6014 24.5371 58.0241V55.2095L25.2588 55.2456Z" fill="white"/>
<path d="M38.9715 58.421C38.6829 59.251 37.8529 59.9005 36.8425 59.9005C35.4713 59.9005 34.4609 58.818 34.4609 57.555C34.4609 56.3281 35.4352 55.2095 36.8065 55.2095C38.0333 55.2095 38.755 56.0755 38.9715 56.689H38.2138C38.0694 56.4003 37.6003 55.859 36.8065 55.8229C35.8322 55.8229 35.1826 56.6168 35.1826 57.5189C35.1826 58.4571 35.8682 59.251 36.8065 59.251C37.6725 59.251 38.1055 58.6014 38.2138 58.421H38.9715Z" fill="white"/>
<path d="M46.4424 55.2456H45.7207V59.7562H46.4424V55.2456Z" fill="white"/>
<path d="M56.4725 58.7097L56.4364 55.2456H57.1581V59.7923H56.4725L54.127 56.3281V59.7923H53.4414V55.2456H54.127L56.4725 58.7097Z" fill="white"/>
<path d="M64.123 55.2456H66.6851V55.8951H64.8447V57.1942H66.649V57.8076H64.8447V59.1428H66.6851V59.7923H64.123V55.2456Z" fill="white"/>
</svg>
